<?xml version="1.0" standalone="no"?>
<!DOCTYPE svg PUBLIC "-//W3C//DTD SVG 20010904//EN"
 "http://www.w3.org/TR/2001/REC-SVG-20010904/DTD/svg10.dtd">
<svg version="1.0" xmlns="http://www.w3.org/2000/svg"
 width="260.000000pt" height="260.000000pt" viewBox="0 0 260.000000 260.000000"
 preserveAspectRatio="xMidYMid meet">
<metadata>
Created by potrace 1.14, written by Peter Selinger 2001-2017
</metadata>
<g transform="translate(0.000000,260.000000) scale(0.100000,-0.100000)"
fill="#000000" stroke="none">
<path d="M1289 2594 c-1 -6 -4 -556 -4 -665 0 0 23 -2 50 -5 60 -5 143 -23
168 -36 21 -11 19 -47 21 359 l1 332 -30 5 c-64 11 -205 18 -206 10z"/>
<path d="M1109 2586 c-2 -2 -20 -6 -39 -9 -340 -49 -694 -293 -886 -612 -66
-110 -142 -303 -159 -405 -3 -19 -9 -55 -13 -80 -9 -59 -9 -300 1 -368 43
-303 214 -610 447 -804 169 -139 345 -227 550 -274 58 -13 114 -24 125 -24 20
0 20 6 20 340 l0 340 -35 11 c-116 35 -241 124 -316 222 -87 115 -127 237
-126 382 1 261 157 482 407 580 l70 27 0 339 c0 337 0 339 -21 339 -11 0 -23
-2 -25 -4z"/>
<path d="M1650 2181 c0 -232 4 -371 10 -371 5 0 40 -31 78 -69 l69 -69 0 409
c1 293 -3 411 -11 417 -6 5 -36 17 -66 27 -30 10 -61 20 -67 23 -10 3 -13 -74
-13 -367z"/>
<path d="M1923 1300 l0 -1140 46 26 c25 15 50 30 55 35 5 5 9 455 9 1079 0
1041 0 1071 -19 1085 -10 7 -35 23 -55 34 l-36 21 0 -1140z"/>
<path d="M2150 1293 l0 -977 32 30 c18 16 37 34 44 40 9 8 12 227 12 910 l0
899 -36 38 c-20 20 -40 37 -44 37 -4 0 -8 -440 -8 -977z"/>
<path d="M2355 1299 c0 -412 1 -749 2 -749 1 0 15 17 30 37 l28 36 1 671 1
671 -23 37 c-13 20 -27 39 -31 41 -5 3 -8 -332 -8 -744z"/>
<path d="M2541 1299 c1 -403 3 -416 39 -224 25 140 21 361 -10 500 -12 55 -24
102 -26 104 -2 2 -4 -169 -3 -380z"/>
<path d="M1763 882 c-22 -26 -57 -59 -77 -72 l-36 -25 0 -368 0 -368 23 6 c12
4 47 16 79 27 l56 20 0 414 c-1 228 -2 414 -3 414 -1 0 -20 -22 -42 -48z"/>
<path d="M1465 699 c-31 -10 -77 -18 -136 -24 -19 -2 -36 -4 -39 -4 -3 -1 -5
-151 -4 -333 l1 -333 102 2 c56 2 109 7 118 12 15 8 17 45 17 350 1 374 5 350
-59 330z"/>
</g>
</svg>
